<?xml version="1.0" encoding="UTF-8" standalone="no"?>
<!-- Created with Inkscape (http://www.inkscape.org/) -->

<svg
   width="180"
   height="180"
   viewBox="0 0 180 180"
   version="1.1"
   id="svg1"
   xml:space="preserve"
   xmlns="http://www.w3.org/2000/svg"
   xmlns:svg="http://www.w3.org/2000/svg"><defs
     id="defs1" /><g
     id="layer1"><path
       id="path4"
       style="display:inline;fill:#3b82f6;stroke:none;stroke-width:3.31201"
       d="M 89.976562,1.734375 A 88.756279,88.756279 0 0 0 1.2207031,90.490234 88.756279,88.756279 0 0 0 89.976562,179.24805 88.756279,88.756279 0 0 0 124.88672,171.95703 c 0.1271,-0.20795 0.27091,-0.39347 0.39648,-0.60351 0,0 -28.912958,4.24944 -34.322262,-5.69922 0,0 4.897689,-6.91346 12.412112,-12.14063 0,0 -29.176309,0.39382 -36.115238,-26.18555 0,0 17.820786,4.13435 17.587891,1.89258 0,0 -31.125496,-7.81668 -21.910156,-39.900388 0,0 5.8504,9.725495 16.802734,12.324218 0,0 -25.65861,-19.088324 -9.623047,-43.140624 0,0 7.927698,14.800403 11.972657,16.183594 0,0 -16.440357,-32.97438 17.480468,-50.53125 0,0 -6.341996,31.600925 26.675781,52.425781 0,0 47.58113,25.762609 39.9375,33.624999 0,0 -1.80621,16.32846 -0.44336,22.375 0,0 0.39055,0.90514 0.98242,2.08985 A 88.756279,88.756279 0 0 0 178.73438,90.490234 88.756279,88.756279 0 0 0 89.976562,1.734375 Z" /></g><path
     id="path1"
     style="display:none;fill:#3b82f6;stroke-width:3.31201"
     d="M 178.73345,90.490845 A 88.756279,88.756279 0 0 1 89.977173,179.24712 88.756279,88.756279 0 0 1 1.2208939,90.490845 88.756279,88.756279 0 0 1 89.977173,1.7345657 88.756279,88.756279 0 0 1 178.73345,90.490845 Z" /></svg>
