<?xml version="1.0" encoding="UTF-8" standalone="no"?>
<!-- Created with Inkscape (http://www.inkscape.org/) -->

<svg
   version="1.1"
   id="svg1"
   width="1024"
   height="1024"
   viewBox="0 0 1024 1024"
   sodipodi:docname="favicon.svg"
   inkscape:version="1.3.2 (091e20ef0f, 2023-11-25)"
   xmlns:inkscape="http://www.inkscape.org/namespaces/inkscape"
   xmlns:sodipodi="http://sodipodi.sourceforge.net/DTD/sodipodi-0.dtd"
   xmlns="http://www.w3.org/2000/svg"
   xmlns:svg="http://www.w3.org/2000/svg">
  <defs
     id="defs1" />
  <sodipodi:namedview
     id="namedview1"
     pagecolor="#ffffff"
     bordercolor="#000000"
     borderopacity="0.25"
     inkscape:showpageshadow="2"
     inkscape:pageopacity="0.0"
     inkscape:pagecheckerboard="0"
     inkscape:deskcolor="#d1d1d1"
     showgrid="false"
     inkscape:zoom="0.55587984"
     inkscape:cx="468.62646"
     inkscape:cy="511.80126"
     inkscape:window-width="1920"
     inkscape:window-height="1011"
     inkscape:window-x="0"
     inkscape:window-y="0"
     inkscape:window-maximized="1"
     inkscape:current-layer="layer2" />
  <g
     inkscape:groupmode="layer"
     id="layer2"
     inkscape:label="Image 1"
     style="opacity:1">
    <path
       style="display:inline;opacity:1;fill:#5d2ded;fill-opacity:1;stroke-width:3.45071;stroke-dasharray:none"
       d="m 303.57677,127.37267 c 0,0 648.84964,-228.43675 696.34273,329.16891 47.4931,557.60572 -828.13748,559.44402 -977.342183,345.14421 0,0 273.013123,60.48891 375.538223,-111.00544 0,0 -86.96373,12.78269 -103.23469,-17.14249 0,0 14.72974,-20.79474 37.33281,-36.51785 0,0 -87.76374,1.1835 -108.63575,-78.76611 0,0 53.60373,12.43289 52.9032,5.68974 0,0 -93.62129,-23.51146 -65.90192,-120.01795 0,0 17.59976,29.25818 50.54394,37.07501 0,0 -77.18307,-57.4183 -28.94874,-129.76664 0,0 23.84601,44.51767 36.01308,48.67826 0,0 -49.45018,-99.18668 52.58229,-151.99704 0,0 -19.07771,95.05867 80.23843,157.69899 0,0 143.12113,77.48909 120.12938,101.13885 0,0 -5.43271,49.11748 -1.33332,67.30522 0,0 27.07304,74.73979 109.33179,43.83852 0,0 241.8949,-182.90642 -13.89361,-414.91409 0,0 -143.13018,-120.331122 -311.66566,-75.6101 z"
       id="path2" />
  </g>
</svg>
